<svg width="84" height="27" viewBox="0 0 84 27" fill="none" xmlns="http://www.w3.org/2000/svg">
<path d="M18.6626 4.94179H11.8077V26.0045H6.81902V4.94179H0V0.5H18.6626V4.94179ZM41.3189 0.5V17.2642C41.3189 20.0344 40.3742 22.2194 38.484 23.8194C36.6178 25.4194 34.3089 26.2194 31.5573 26.2194C28.8058 26.2194 26.4849 25.4194 24.5948 23.8194C22.7285 22.2194 21.7954 20.0344 21.7954 17.2642V0.5H26.784V17.0851C26.784 18.6612 27.2147 19.8433 28.076 20.6313C28.9613 21.3955 30.1218 21.7776 31.5573 21.7776C32.9929 21.7776 34.1533 21.3955 35.0386 20.6313C35.9239 19.8433 36.3665 18.6612 36.3665 17.0851V0.5H41.3189ZM63.3544 4.94179H54.3461C53.2931 4.94179 52.5517 5.14475 52.121 5.55075C51.714 5.95674 51.5109 6.66119 51.5109 7.66418V11.2104H60.878L60.5191 15.6522H51.5109V26.0045H46.5222V5.69403C46.5222 3.80749 46.9292 2.47015 47.7425 1.68209C48.5801 0.89403 50.0035 0.5 52.0133 0.5H63.3544V4.94179ZM84.5235 4.94179H75.5152C74.4622 4.94179 73.7208 5.14475 73.2901 5.55075C72.8831 5.95674 72.68 6.66119 72.68 7.66418V11.2104H82.0471L81.6882 15.6522H72.68V26.0045H67.6913V5.69403C67.6913 3.80749 68.0983 2.47015 68.9116 1.68209C69.7492 0.89403 71.1726 0.5 73.1824 0.5H84.5235V4.94179Z" fill="white"/>
</svg>
